<?xml version="1.0" encoding="utf-8"?>
<!-- Generator: Adobe Illustrator 27.0.0, SVG Export Plug-In . SVG Version: 6.00 Build 0)  -->
<svg version="1.1" id="Layer_1" xmlns="http://www.w3.org/2000/svg" xmlns:xlink="http://www.w3.org/1999/xlink" x="0px" y="0px"
	 viewBox="0 0 541 129.8" style="enable-background:new 0 0 541 129.8;" xml:space="preserve">
<style type="text/css">
	.st0{fill:#008AFF;}
	.st1{fill:#231F20;}
</style>
<path class="st0" d="M119.8,40.7c-0.1-0.4-0.4-0.8-0.7-1.1l-15.9-15c-1.5-1.4-3.5-2.2-5.6-2.2H64.7l0,0c-0.1,0-0.2,0-0.3,0h-0.2
	c-0.4,0-0.7,0.1-1.1,0.2l0,0c-0.7,0.3-1.3,0.9-1.6,1.6l0,0c-0.1,0.3-0.2,0.7-0.2,1.1v37.8H23.5c-1.6,0-2.9,1.3-2.9,2.9
	c0,0,0,0.1,0,0.1c-0.1,0.3-0.2,0.7-0.2,1l0.3,32.9c0,2.2,0.9,4.2,2.4,5.8l15.3,15.6l0,0c2,2.1,4.8,3.2,7.6,3.2H112
	c5.9,0,10.7-4.8,10.7-10.7V47.9C122.7,45.2,121.6,42.6,119.8,40.7z M99.2,28.8l8.9,8.4H80.2l-9.1-9.1h26.4
	C98.2,28.2,98.7,28.4,99.2,28.8L99.2,28.8z M39.8,78l-9.2-9.1H63l9.1,9.1H39.8z M76.1,73.8l-9.1-9.1V32.3l9.1,9.1V73.8z M26.5,99.8
	l-0.3-27.1l9.2,9v28.1l-8.2-8.3C26.8,101.1,26.5,100.5,26.5,99.8L26.5,99.8z M116.8,113.8c0,2.7-2.2,4.9-4.9,4.9H46.1
	c-2.7,0-4.9-2.2-4.9-4.9v-30h37.8c1.6,0,2.9-1.3,2.9-2.9V43h30c2.7,0,4.9,2.2,4.9,4.9L116.8,113.8z"/>
<path class="st0" d="M20.5,59.6L20.5,59.6c0.1-0.3,0.2-0.7,0.2-1.1l0,0V20.7h37.8c1.6,0,2.9-1.3,2.9-2.9c0-0.9-0.4-1.7-1.1-2.3
	L46.3,1.7c-0.5-1-1.5-1.7-2.6-1.7H2.9C1.3,0,0,1.3,0,2.9v40.3c0,0.3,0,0.6,0.1,0.9v0.1c0,0.2,0.1,0.4,0.2,0.6
	c0.1,0.3,0.3,0.5,0.5,0.7v0.1l0.1,0.1l0,0l14.9,14.9c0.3,0.3,0.6,0.5,1,0.6l0,0c0.7,0.3,1.4,0.3,2.1,0l0,0
	C19.6,60.9,20.2,60.4,20.5,59.6z M5.8,9.9l9.1,9.1v32.5l-9.1-9.1V9.9z M42.2,5.8l9.2,9.1H19L9.9,5.8H42.2z"/>
<path class="st1" d="M200.3,7.3h-28.8c-2.1,0-3.9,1.7-3.9,3.9V13c0,2.1,1.7,3.9,3.9,3.9h23v44.5c0,27.9-25.6,31-36.7,31
	c-2.1,0-3.9,1.7-3.9,3.9v2c0,2.1,1.7,3.9,3.9,3.9c28.6,0,46.3-15.6,46.3-40.7V11.3C204.2,9.2,202.5,7.4,200.3,7.3
	C200.3,7.3,200.3,7.3,200.3,7.3z"/>
<path class="st1" d="M249.3,8.4c-0.6-1.5-2-2.5-3.6-2.5h-2.1c-1.6,0-3,1-3.6,2.5l-35,88.4c-0.8,2,0.2,4.3,2.2,5
	c0.5,0.2,0.9,0.3,1.4,0.3h2.1c1.6,0,3-1,3.6-2.4l10.8-26.8h38.9l11,26.8c0.6,1.5,2,2.4,3.6,2.4h2.1c2.1,0,3.9-1.7,3.9-3.9
	c0-0.6-0.2-1.3-0.5-1.8L249.3,8.4z M229.1,63.2l15.5-40l15.6,40H229.1z"/>
<path class="st1" d="M353.6,7.2h-1.9c-2.1,0-3.9,1.7-3.9,3.9v71.2L297.1,8.9c-0.7-1-1.7-1.6-2.9-1.7l-1.7-0.1
	c-2.1-0.1-4,1.5-4.2,3.6c0,0.1,0,0.2,0,0.3v87.2c0,2.1,1.7,3.9,3.9,3.9h2c2.1,0,3.9-1.7,3.9-3.9V27.5l50.4,72.9
	c0.7,1.1,1.9,1.7,3.2,1.7h2c2.1,0,3.9-1.7,3.9-3.9V11.1C357.5,9,355.8,7.2,353.6,7.2C353.6,7.2,353.6,7.2,353.6,7.2z"/>
<path class="st1" d="M418.6,92.5h-42.4V59.6h41.2c2.1,0,3.9-1.7,3.9-3.9v-2c0-2.1-1.7-3.9-3.9-3.9h-41.2V17h42.2
	c2.1,0,3.9-1.7,3.9-3.9v-1.9c0-2.1-1.7-3.9-3.9-3.9h-48c-2.1,0-3.9,1.7-3.9,3.9v87c0,2.1,1.7,3.9,3.9,3.9h48.3
	c2.1,0,3.9-1.7,3.9-3.9v-1.9C422.5,94.2,420.7,92.5,418.6,92.5C418.6,92.5,418.6,92.5,418.6,92.5z"/>
<path class="st1" d="M484.4,50.1c2.3-2.4,4.2-5.2,5.4-8.3c2.3-6.3,2.3-13.3,0-19.6c-3.6-9.3-11.8-14.8-21.9-14.8h-35.2
	c-2.1,0-3.9,1.7-3.9,3.9v87c0,2.1,1.7,3.9,3.9,3.9h38.7c16.8,0,25.4-12.5,26.4-24.9C498.7,66.9,494.3,55.4,484.4,50.1z M471.3,92.5
	h-32.8V56.6h32.8c11.7,0,16.9,9,16.9,18c0.1,4.5-1.4,9-4.3,12.5C481,90.6,476.6,92.5,471.3,92.5L471.3,92.5z M480.8,38.2
	c-2,5.4-7.2,8.9-12.9,8.6h-29.3V17.1h29.3c5.7-0.3,10.9,3.2,12.9,8.6C482.3,29.7,482.3,34.1,480.8,38.2L480.8,38.2z"/>
<path class="st1" d="M537.2,16.9c2.1,0,3.9-1.7,3.9-3.9v-1.7c0-2.1-1.7-3.9-3.9-3.9h-39c-2.1,0-3.9,1.7-3.9,3.9V13
	c0,2.1,1.7,3.9,3.9,3.9h14.6v75.6h-14.6c-2.1,0-3.9,1.7-3.9,3.9v1.9c0,2.1,1.7,3.9,3.9,3.9h39c2.1,0,3.9-1.7,3.9-3.9v-1.9
	c0-2.1-1.7-3.9-3.9-3.9h-14.7V16.9H537.2z"/>
<path class="st1" d="M167.6,119.6c0,0.8-0.1,1.6-0.4,2.4c-0.2,0.7-0.5,1.3-1,1.9c-0.5,0.5-1.1,1-1.7,1.2c-0.8,0.3-1.6,0.5-2.4,0.4
	c-0.8,0-1.6-0.1-2.3-0.4c-0.6-0.2-1.2-0.6-1.6-1.1c-0.5-0.5-0.8-1.1-1-1.8c-0.2-0.8-0.3-1.6-0.3-2.4c0-0.8,0.1-1.6,0.3-2.4
	c0.2-0.7,0.5-1.3,1-1.9c0.5-0.5,1.1-1,1.7-1.2c0.8-0.3,1.6-0.5,2.4-0.4c0.8,0,1.6,0.1,2.3,0.4c0.6,0.2,1.2,0.6,1.6,1.1
	c0.5,0.5,0.8,1.2,1,1.8C167.5,118,167.6,118.8,167.6,119.6z M165.6,119.8c0-0.6,0-1.1-0.2-1.6c-0.1-0.5-0.3-0.9-0.5-1.4
	c-0.2-0.4-0.6-0.7-1-0.9c-0.5-0.2-1-0.4-1.6-0.3c-0.5,0-1,0.1-1.5,0.3c-0.4,0.2-0.7,0.5-1,0.9c-0.3,0.4-0.5,0.9-0.6,1.3
	c-0.1,0.6-0.2,1.1-0.2,1.7c0,0.6,0,1.1,0.2,1.7c0.1,0.5,0.3,0.9,0.5,1.4c0.3,0.4,0.6,0.7,1,0.9c0.5,0.2,1,0.4,1.6,0.3
	c0.5,0,1-0.1,1.5-0.3c0.4-0.2,0.7-0.5,1-0.9c0.3-0.4,0.5-0.9,0.6-1.3C165.5,120.9,165.5,120.3,165.6,119.8L165.6,119.8z"/>
<path class="st1" d="M184.6,125.1c0,0.1,0,0.1,0,0.2c0,0.1-0.1,0.1-0.2,0.1c-0.1,0-0.2,0.1-0.3,0.1h-0.5h-0.5c-0.1,0-0.2,0-0.3-0.1
	c-0.1,0-0.1-0.1-0.1-0.1c0-0.1,0-0.1,0-0.2v-6.3c0-0.5,0-1-0.1-1.5c-0.1-0.4-0.2-0.7-0.4-1c-0.2-0.3-0.4-0.5-0.7-0.6
	c-0.3-0.1-0.7-0.2-1-0.2c-0.5,0-1.1,0.2-1.5,0.5c-0.6,0.4-1.1,1-1.6,1.5v7.5c0,0.1,0,0.1,0,0.2c0,0-0.1,0.1-0.1,0.1
	c-0.1,0-0.2,0.1-0.3,0.1h-0.5H176c-0.1,0-0.2,0-0.3-0.1c-0.1,0-0.1-0.1-0.1-0.1c0-0.1,0-0.1,0-0.2v-10.7c0-0.1,0-0.1,0-0.2
	c0-0.1,0.1-0.1,0.1-0.1c0.1,0,0.2-0.1,0.3-0.1h0.4h0.4c0.1,0,0.2,0,0.3,0.1c0.1,0,0.1,0.1,0.1,0.1c0,0.1,0,0.1,0,0.2v1.4
	c0.5-0.6,1.1-1.1,1.8-1.5c0.6-0.3,1.2-0.5,1.8-0.5c0.6,0,1.2,0.1,1.8,0.4c0.5,0.2,0.9,0.6,1.2,1c0.3,0.4,0.5,0.9,0.6,1.4
	c0.1,0.7,0.2,1.3,0.2,2L184.6,125.1z"/>
<path class="st1" d="M195,125.1c0,0.1,0,0.1,0,0.2c0,0-0.1,0.1-0.1,0.1c-0.1,0-0.2,0.1-0.3,0.1H194h-0.5c-0.1,0-0.2,0-0.3-0.1
	c-0.1,0-0.1-0.1-0.1-0.1c0-0.1,0-0.1,0-0.2v-16c0-0.1,0-0.1,0-0.2c0-0.1,0.1-0.1,0.1-0.1c0.1,0,0.2-0.1,0.3-0.1h0.5h0.5
	c0.1,0,0.2,0,0.3,0.1c0.1,0,0.1,0.1,0.1,0.1c0,0.1,0,0.1,0,0.2V125.1z"/>
<path class="st1" d="M205.7,110.8c0,0.3-0.1,0.7-0.3,0.9c-0.3,0.2-0.6,0.3-1,0.2c-0.3,0-0.7-0.1-0.9-0.2c-0.2-0.3-0.3-0.6-0.3-0.9
	c0-0.3,0.1-0.7,0.3-0.9c0.3-0.2,0.6-0.3,1-0.2c0.3,0,0.7,0.1,0.9,0.2C205.6,110.1,205.7,110.4,205.7,110.8z M205.4,125.1
	c0,0.1,0,0.1,0,0.2c0,0-0.1,0.1-0.1,0.1c-0.1,0-0.2,0.1-0.3,0.1h-0.5H204c-0.1,0-0.2,0-0.3-0.1c-0.1,0-0.1-0.1-0.1-0.1
	c0-0.1,0-0.1,0-0.2v-10.7c0,0,0-0.1,0-0.1c0-0.1,0.1-0.1,0.1-0.1c0.1,0,0.2-0.1,0.3-0.1h0.5h0.5c0.1,0,0.2,0,0.3,0.1
	c0.1,0,0.1,0.1,0.1,0.1c0,0,0,0.1,0,0.1V125.1z"/>
<path class="st1" d="M223.2,125.1c0,0.1,0,0.1,0,0.2c0,0.1-0.1,0.1-0.2,0.1c-0.1,0-0.2,0.1-0.3,0.1h-0.5h-0.5c-0.1,0-0.2,0-0.3-0.1
	c-0.1,0-0.1-0.1-0.1-0.1c0-0.1,0-0.1,0-0.2v-6.3c0-0.5,0-1-0.1-1.5c-0.1-0.4-0.2-0.7-0.4-1c-0.2-0.3-0.4-0.5-0.7-0.6
	c-0.3-0.1-0.7-0.2-1-0.2c-0.5,0-1.1,0.2-1.5,0.5c-0.6,0.4-1.1,1-1.6,1.5v7.5c0,0.1,0,0.1,0,0.2c0,0-0.1,0.1-0.1,0.1
	c-0.1,0-0.2,0.1-0.3,0.1h-0.5h-0.5c-0.1,0-0.2,0-0.3-0.1c-0.1,0-0.1-0.1-0.1-0.1c0-0.1,0-0.1,0-0.2v-10.7c0-0.1,0-0.1,0-0.2
	c0-0.1,0.1-0.1,0.1-0.1c0.1,0,0.2-0.1,0.3-0.1h0.4h0.4c0.1,0,0.2,0,0.3,0.1c0.1,0,0.1,0.1,0.1,0.1c0,0.1,0,0.1,0,0.2v1.4
	c0.5-0.6,1.1-1.1,1.8-1.5c0.6-0.3,1.2-0.5,1.8-0.5c0.6,0,1.2,0.1,1.8,0.4c0.5,0.2,0.9,0.6,1.2,1c0.3,0.4,0.5,0.9,0.6,1.4
	c0.1,0.7,0.2,1.3,0.2,2L223.2,125.1z"/>
<path class="st1" d="M240.8,119.3c0,0.2-0.1,0.5-0.2,0.7c-0.1,0.1-0.3,0.2-0.5,0.2H233c0,0.5,0.1,1.1,0.2,1.6
	c0.1,0.4,0.3,0.9,0.6,1.2c0.3,0.4,0.7,0.6,1.1,0.8c0.5,0.2,1.1,0.3,1.6,0.3c0.5,0,0.9,0,1.4-0.1c0.3-0.1,0.7-0.2,1-0.3
	c0.3-0.1,0.5-0.2,0.7-0.3c0.1-0.1,0.3-0.1,0.4-0.1c0,0,0.1,0,0.1,0c0,0,0.1,0.1,0.1,0.1c0,0.1,0,0.2,0.1,0.2c0,0.1,0,0.2,0,0.4
	c0,0.1,0,0.2,0,0.3c0,0.1,0,0.1,0,0.2c0,0.1,0,0.1-0.1,0.2c0,0.1-0.1,0.1-0.1,0.1c-0.1,0.1-0.3,0.2-0.4,0.2
	c-0.3,0.1-0.5,0.2-0.8,0.3c-0.4,0.1-0.8,0.2-1.2,0.3c-0.5,0.1-1,0.1-1.4,0.1c-0.8,0-1.6-0.1-2.3-0.4c-0.6-0.2-1.2-0.6-1.7-1.1
	c-0.5-0.5-0.8-1.2-1-1.8c-0.2-0.8-0.4-1.7-0.4-2.6c0-0.8,0.1-1.7,0.4-2.5c0.2-0.7,0.5-1.3,1-1.9c0.4-0.5,1-0.9,1.6-1.2
	c0.7-0.3,1.4-0.4,2.1-0.4c0.7,0,1.5,0.1,2.1,0.4c0.6,0.2,1.1,0.6,1.5,1.1c0.4,0.5,0.7,1,0.8,1.6c0.2,0.7,0.3,1.3,0.3,2L240.8,119.3z
	 M238.8,118.7c0.1-0.9-0.2-1.7-0.7-2.4c-0.5-0.6-1.3-0.9-2.1-0.9c-0.4,0-0.9,0.1-1.3,0.3c-0.4,0.2-0.7,0.4-0.9,0.7
	c-0.3,0.3-0.5,0.7-0.6,1.1c-0.1,0.4-0.2,0.8-0.2,1.3L238.8,118.7z"/>
<path class="st1" d="M265.8,122.2c0,0.5-0.1,1-0.3,1.5c-0.2,0.4-0.5,0.8-0.9,1.1c-0.4,0.3-0.9,0.5-1.3,0.7c-0.6,0.2-1.1,0.2-1.7,0.2
	c-0.7,0-1.4-0.1-2-0.3c-0.2-0.1-0.5-0.2-0.7-0.3c-0.2-0.1-0.3-0.2-0.4-0.3c-0.1-0.1-0.2-0.2-0.2-0.3c0-0.2-0.1-0.4-0.1-0.6
	c0-0.1,0-0.3,0-0.4c0-0.1,0-0.2,0.1-0.2c0-0.1,0.1-0.1,0.1-0.1c0,0,0.1,0,0.1,0c0.1,0,0.3,0.1,0.4,0.2c0.2,0.1,0.4,0.2,0.6,0.4
	c0.3,0.1,0.6,0.3,0.9,0.4c0.4,0.1,0.8,0.2,1.2,0.2c0.3,0,0.6,0,0.9-0.1c0.3-0.1,0.5-0.2,0.7-0.3c0.2-0.1,0.4-0.3,0.5-0.5
	c0.1-0.2,0.2-0.5,0.2-0.8c0-0.3-0.1-0.5-0.2-0.8c-0.2-0.2-0.4-0.4-0.6-0.6c-0.3-0.2-0.6-0.3-0.9-0.4l-1-0.4c-0.3-0.1-0.7-0.3-1-0.5
	c-0.3-0.2-0.6-0.4-0.9-0.6c-0.3-0.3-0.5-0.6-0.6-0.9c-0.2-0.4-0.2-0.8-0.2-1.2c0-0.4,0.1-0.8,0.2-1.2c0.2-0.4,0.4-0.7,0.7-1
	c0.4-0.3,0.8-0.5,1.2-0.7c0.6-0.2,1.1-0.3,1.7-0.3c0.3,0,0.6,0,0.9,0.1c0.3,0,0.5,0.1,0.8,0.2c0.2,0.1,0.4,0.1,0.6,0.2
	c0.1,0.1,0.3,0.1,0.4,0.2c0.1,0,0.1,0.1,0.2,0.2c0,0,0,0.1,0.1,0.2c0,0.1,0,0.1,0,0.2c0,0.1,0,0.2,0,0.3c0,0.1,0,0.2,0,0.4
	c0,0.1,0,0.2-0.1,0.2c0,0.1-0.1,0.1-0.1,0.1c0,0-0.1,0-0.1,0c-0.1,0-0.2-0.1-0.3-0.1c-0.2-0.1-0.3-0.2-0.5-0.3
	c-0.2-0.1-0.5-0.2-0.8-0.3c-0.3-0.1-0.7-0.1-1-0.1c-0.3,0-0.6,0-0.9,0.1c-0.2,0.1-0.4,0.2-0.6,0.3c-0.2,0.1-0.3,0.3-0.4,0.5
	c-0.1,0.2-0.1,0.4-0.1,0.6c0,0.3,0.1,0.6,0.2,0.8c0.2,0.2,0.4,0.4,0.6,0.6c0.3,0.2,0.6,0.3,0.9,0.4l1,0.4c0.3,0.1,0.7,0.3,1,0.4
	c0.3,0.2,0.6,0.4,0.9,0.6c0.3,0.2,0.5,0.5,0.6,0.9C265.7,121.4,265.8,121.8,265.8,122.2z"/>
<path class="st1" d="M280.1,125.1c0,0.1,0,0.1,0,0.2c0,0-0.1,0.1-0.1,0.1c-0.1,0-0.2,0.1-0.3,0.1h-0.5h-0.5c-0.1,0-0.2,0-0.3-0.1
	c-0.1,0-0.1-0.1-0.2-0.1c0-0.1,0-0.1,0-0.2v-6.3c0-0.5,0-1-0.1-1.5c-0.1-0.4-0.2-0.7-0.4-1c-0.2-0.3-0.4-0.5-0.7-0.6
	c-0.3-0.1-0.7-0.2-1-0.2c-0.5,0-1.1,0.2-1.5,0.5c-0.6,0.4-1.1,1-1.6,1.5v7.5c0,0.1,0,0.1,0,0.2c0,0.1-0.1,0.1-0.2,0.1
	c-0.1,0-0.2,0.1-0.3,0.1H272h-0.5c-0.1,0-0.2,0-0.3-0.1c-0.1,0-0.1-0.1-0.1-0.1c0-0.1,0-0.1,0-0.2v-16c0-0.1,0-0.1,0-0.2
	c0-0.1,0.1-0.1,0.1-0.1c0.1,0,0.2-0.1,0.3-0.1h0.5h0.5c0.1,0,0.2,0,0.3,0.1c0.1,0,0.1,0.1,0.2,0.1c0,0.1,0,0.1,0,0.2v6.4
	c0.5-0.5,1.1-1,1.7-1.3c0.5-0.3,1.1-0.4,1.7-0.4c0.6,0,1.2,0.1,1.8,0.4c0.5,0.2,0.9,0.6,1.2,1c0.3,0.4,0.5,0.9,0.6,1.4
	c0.1,0.7,0.2,1.3,0.2,2L280.1,125.1z"/>
<path class="st1" d="M296.2,119.6c0,0.8-0.1,1.6-0.4,2.4c-0.2,0.7-0.5,1.3-1,1.9c-0.5,0.5-1.1,1-1.7,1.2c-0.8,0.3-1.6,0.5-2.4,0.4
	c-0.8,0-1.6-0.1-2.3-0.4c-0.6-0.2-1.2-0.6-1.6-1.1c-0.5-0.5-0.8-1.1-1-1.8c-0.2-0.8-0.3-1.6-0.3-2.4c0-0.8,0.1-1.6,0.3-2.4
	c0.2-0.7,0.5-1.3,1-1.9c0.5-0.5,1.1-1,1.7-1.2c0.8-0.3,1.6-0.5,2.4-0.4c0.8,0,1.6,0.1,2.3,0.4c0.6,0.2,1.2,0.6,1.6,1.1
	c0.5,0.5,0.8,1.2,1,1.8C296.1,118,296.2,118.8,296.2,119.6z M294.2,119.8c0-0.6-0.1-1.1-0.2-1.6c-0.1-0.5-0.3-0.9-0.5-1.4
	c-0.2-0.4-0.6-0.7-1-0.9c-0.5-0.2-1-0.4-1.6-0.3c-0.5,0-1,0.1-1.5,0.3c-0.4,0.2-0.7,0.5-1,0.9c-0.3,0.4-0.5,0.9-0.6,1.3
	c-0.1,0.6-0.2,1.1-0.2,1.7c0,0.6,0,1.1,0.2,1.7c0.1,0.5,0.3,0.9,0.5,1.4c0.3,0.4,0.6,0.7,1,0.9c0.5,0.2,1,0.4,1.6,0.3
	c0.5,0,1-0.1,1.5-0.3c0.4-0.2,0.7-0.5,1-0.9c0.3-0.4,0.5-0.9,0.6-1.3C294.1,120.9,294.1,120.3,294.2,119.8L294.2,119.8z"/>
<path class="st1" d="M326.2,119.6c0,0.9-0.1,1.7-0.3,2.5c-0.2,0.7-0.5,1.3-0.9,1.9c-0.4,0.5-0.9,0.9-1.5,1.2c-0.6,0.3-1.3,0.4-2,0.4
	c-0.3,0-0.6,0-0.9-0.1c-0.3-0.1-0.5-0.2-0.8-0.3c-0.3-0.1-0.5-0.3-0.8-0.5c-0.3-0.2-0.5-0.4-0.8-0.7v5.4c0,0.1,0,0.1,0,0.2
	c0,0.1-0.1,0.1-0.2,0.1c-0.1,0-0.2,0.1-0.3,0.1c-0.2,0-0.3,0-0.5,0c-0.2,0-0.3,0-0.5,0c-0.1,0-0.2,0-0.3-0.1c-0.1,0-0.1-0.1-0.2-0.1
	c0-0.1,0-0.1,0-0.2v-15c0-0.1,0-0.1,0-0.2c0-0.1,0.1-0.1,0.1-0.1c0.1,0,0.2-0.1,0.3-0.1h0.4h0.4c0.1,0,0.2,0,0.3,0.1
	c0.1,0,0.1,0.1,0.1,0.1c0,0.1,0,0.1,0,0.2v1.4c0.3-0.3,0.6-0.6,0.9-0.9c0.3-0.2,0.6-0.4,0.9-0.6c0.3-0.2,0.6-0.3,0.9-0.4
	c1-0.2,2.1-0.1,3,0.3c0.5,0.3,1,0.7,1.3,1.2c0.4,0.6,0.6,1.2,0.8,1.8C326.1,118.1,326.2,118.8,326.2,119.6z M324.2,119.8
	c0-0.5,0-1.1-0.1-1.6c-0.1-0.5-0.2-0.9-0.4-1.4c-0.2-0.4-0.5-0.7-0.8-1c-0.4-0.2-0.8-0.4-1.3-0.4c-0.3,0-0.5,0-0.8,0.1
	c-0.3,0.1-0.5,0.2-0.8,0.4c-0.3,0.2-0.6,0.4-0.8,0.6c-0.3,0.3-0.6,0.6-0.9,1v4.3c0.5,0.6,1,1.1,1.6,1.5c0.4,0.3,1,0.5,1.5,0.5
	c0.5,0,0.9-0.1,1.3-0.4c0.4-0.3,0.7-0.6,0.9-1c0.2-0.4,0.4-0.9,0.5-1.3C324.1,120.7,324.2,120.3,324.2,119.8L324.2,119.8z"/>
<path class="st1" d="M311.2,119.6c0,0.9-0.1,1.7-0.3,2.5c-0.2,0.7-0.5,1.3-0.9,1.9c-0.4,0.5-0.9,0.9-1.5,1.2c-0.6,0.3-1.3,0.4-2,0.4
	c-0.3,0-0.6,0-0.9-0.1c-0.3-0.1-0.5-0.2-0.8-0.3c-0.3-0.1-0.5-0.3-0.8-0.5c-0.3-0.2-0.5-0.4-0.8-0.7v5.4c0,0.1,0,0.1,0,0.2
	c0,0.1-0.1,0.1-0.2,0.1c-0.1,0-0.2,0.1-0.3,0.1c-0.2,0-0.3,0-0.5,0c-0.2,0-0.3,0-0.5,0c-0.1,0-0.2,0-0.3-0.1c-0.1,0-0.1-0.1-0.2-0.1
	c0-0.1,0-0.1,0-0.2v-15c0-0.1,0-0.1,0-0.2c0-0.1,0.1-0.1,0.1-0.1c0.1,0,0.2-0.1,0.3-0.1h0.4h0.4c0.1,0,0.2,0,0.3,0.1
	c0.1,0,0.1,0.1,0.1,0.1c0,0.1,0,0.1,0,0.2v1.4c0.3-0.3,0.6-0.6,0.9-0.9c0.3-0.2,0.6-0.4,0.9-0.6c0.3-0.2,0.6-0.3,0.9-0.4
	c1-0.2,2.1-0.1,3,0.3c0.5,0.3,1,0.7,1.3,1.2c0.4,0.6,0.6,1.2,0.8,1.8C311.1,118.1,311.2,118.8,311.2,119.6z M309.2,119.8
	c0-0.5,0-1.1-0.1-1.6c-0.1-0.5-0.2-0.9-0.4-1.4c-0.2-0.4-0.5-0.7-0.8-1c-0.4-0.2-0.8-0.4-1.3-0.4c-0.3,0-0.5,0-0.8,0.1
	c-0.3,0.1-0.5,0.2-0.8,0.4c-0.3,0.2-0.6,0.4-0.8,0.6c-0.3,0.3-0.6,0.6-0.9,1v4.3c0.5,0.6,1,1.1,1.6,1.5c0.4,0.3,1,0.5,1.5,0.5
	c0.5,0,0.9-0.1,1.3-0.4c0.4-0.3,0.7-0.6,0.9-1c0.2-0.4,0.4-0.9,0.5-1.3C309.1,120.7,309.1,120.3,309.2,119.8L309.2,119.8z"/>
<path class="st1" d="M333.9,110.8c0,0.3-0.1,0.7-0.3,0.9c-0.3,0.2-0.6,0.3-1,0.2c-0.3,0-0.7-0.1-0.9-0.2c-0.2-0.3-0.3-0.6-0.3-0.9
	c0-0.3,0.1-0.7,0.3-0.9c0.3-0.2,0.6-0.3,1-0.2c0.3,0,0.7,0.1,0.9,0.2C333.8,110.1,333.9,110.4,333.9,110.8z M333.7,125.1
	c0,0.1,0,0.1,0,0.2c0,0.1-0.1,0.1-0.2,0.1c-0.1,0-0.2,0.1-0.3,0.1h-0.5h-0.5c-0.1,0-0.2,0-0.3-0.1c-0.1,0-0.1-0.1-0.2-0.1
	c0-0.1,0-0.1,0-0.2v-10.7c0,0,0-0.1,0-0.1c0-0.1,0.1-0.1,0.2-0.1c0.1,0,0.2-0.1,0.3-0.1h0.5h0.5c0.1,0,0.2,0,0.3,0.1
	c0.1,0,0.1,0.1,0.2,0.1c0,0,0,0.1,0,0.1V125.1z"/>
<path class="st1" d="M348.2,125.1c0,0.1,0,0.1,0,0.2c0,0-0.1,0.1-0.1,0.1c-0.1,0-0.2,0.1-0.3,0.1h-0.5h-0.5c-0.1,0-0.2,0-0.3-0.1
	c-0.1,0-0.1-0.1-0.2-0.1c0-0.1,0-0.1,0-0.2v-6.3c0-0.5,0-1-0.1-1.5c-0.1-0.4-0.2-0.7-0.4-1c-0.2-0.3-0.4-0.5-0.7-0.6
	c-0.3-0.1-0.7-0.2-1-0.2c-0.5,0-1.1,0.2-1.5,0.5c-0.6,0.4-1.1,1-1.6,1.5v7.5c0,0.1,0,0.1,0,0.2c0,0.1-0.1,0.1-0.2,0.1
	c-0.1,0-0.2,0.1-0.3,0.1h-0.5h-0.5c-0.1,0-0.2,0-0.3-0.1c-0.1,0-0.1-0.1-0.2-0.1c0-0.1,0-0.1,0-0.2v-10.7c0-0.1,0-0.1,0-0.2
	c0-0.1,0.1-0.1,0.1-0.1c0.1,0,0.2-0.1,0.3-0.1h0.4h0.4c0.1,0,0.2,0,0.3,0.1c0.1,0,0.1,0.1,0.1,0.1c0,0.1,0,0.1,0,0.2v1.4
	c0.5-0.6,1.1-1.1,1.8-1.5c0.6-0.3,1.2-0.5,1.8-0.5c0.6,0,1.2,0.1,1.8,0.4c0.5,0.2,0.9,0.6,1.2,1c0.3,0.4,0.5,0.9,0.6,1.4
	c0.1,0.7,0.2,1.3,0.2,2L348.2,125.1z"/>
<path class="st1" d="M363.7,114.9c0,0.2,0,0.4-0.1,0.6c-0.1,0.1-0.2,0.2-0.3,0.2h-1.5c0.3,0.3,0.5,0.6,0.6,0.9
	c0.1,0.3,0.2,0.7,0.2,1.1c0,0.6-0.1,1.1-0.3,1.6c-0.2,0.5-0.5,0.9-0.9,1.2c-0.4,0.3-0.8,0.6-1.3,0.8c-0.5,0.2-1.1,0.3-1.7,0.3
	c-0.4,0-0.8-0.1-1.2-0.2c-0.3-0.1-0.6-0.2-0.9-0.4c-0.1,0.1-0.3,0.3-0.4,0.5c-0.1,0.2-0.1,0.4-0.1,0.6c0,0.3,0.2,0.5,0.4,0.7
	c0.3,0.2,0.6,0.3,1,0.3l2.8,0.1c0.5,0,1,0.1,1.5,0.2c0.4,0.1,0.8,0.3,1.2,0.6c0.3,0.2,0.6,0.5,0.8,0.9c0.2,0.4,0.3,0.8,0.3,1.2
	c0,0.5-0.1,1-0.3,1.4c-0.2,0.5-0.5,0.9-0.9,1.2c-0.5,0.4-1,0.6-1.6,0.8c-0.8,0.2-1.6,0.3-2.3,0.3c-0.7,0-1.5-0.1-2.2-0.2
	c-0.5-0.1-1-0.3-1.5-0.6c-0.4-0.2-0.7-0.5-0.9-0.9c-0.2-0.4-0.3-0.8-0.3-1.1c0-0.3,0-0.5,0.1-0.8c0.1-0.2,0.2-0.5,0.3-0.7
	c0.1-0.2,0.3-0.4,0.5-0.6c0.2-0.2,0.4-0.4,0.7-0.6c-0.4-0.2-0.6-0.4-0.9-0.8c-0.2-0.3-0.3-0.6-0.3-1c0-0.5,0.1-0.9,0.3-1.3
	c0.2-0.4,0.4-0.7,0.7-1c-0.2-0.3-0.4-0.6-0.6-1c-0.2-0.4-0.2-0.9-0.2-1.3c0-0.6,0.1-1.1,0.3-1.6c0.2-0.5,0.5-0.9,0.9-1.2
	c0.4-0.3,0.8-0.6,1.3-0.8c0.5-0.2,1.1-0.3,1.7-0.3c0.3,0,0.6,0,0.9,0.1c0.3,0,0.5,0.1,0.8,0.1h3.2c0.1,0,0.2,0.1,0.3,0.2
	C363.7,114.5,363.7,114.7,363.7,114.9z M361.6,126.2c0-0.4-0.2-0.8-0.6-1.1c-0.5-0.3-1-0.4-1.5-0.4l-2.8-0.1
	c-0.2,0.2-0.4,0.4-0.6,0.6c-0.1,0.2-0.3,0.3-0.4,0.5c-0.1,0.1-0.2,0.3-0.2,0.5c0,0.2-0.1,0.3-0.1,0.5c0,0.5,0.3,1,0.8,1.2
	c0.7,0.3,1.4,0.4,2.2,0.4c0.5,0,1,0,1.5-0.2c0.4-0.1,0.7-0.2,1-0.5c0.2-0.2,0.4-0.4,0.5-0.7C361.6,126.7,361.7,126.5,361.6,126.2
	L361.6,126.2z M360.6,117.7c0-0.6-0.2-1.2-0.6-1.7c-0.5-0.4-1.1-0.7-1.7-0.6c-0.3,0-0.7,0.1-1,0.2c-0.3,0.1-0.5,0.3-0.7,0.5
	c-0.2,0.2-0.3,0.5-0.4,0.8c-0.1,0.3-0.1,0.6-0.1,0.9c-0.1,1.2,0.7,2.2,1.9,2.3c0.1,0,0.3,0,0.4,0c0.3,0,0.7-0.1,1-0.2
	c0.3-0.1,0.5-0.3,0.7-0.5c0.2-0.2,0.3-0.5,0.4-0.8C360.6,118.3,360.7,118,360.6,117.7L360.6,117.7z"/>
<path class="st1" d="M389.6,125.1c0,0.1,0,0.2-0.1,0.2c-0.1,0.1-0.2,0.1-0.3,0.1c-0.2,0-0.3,0-0.5,0c-0.2,0-0.3,0-0.5,0
	c-0.1,0-0.2-0.1-0.3-0.1c-0.1-0.1-0.1-0.1-0.1-0.2v-1.1c-0.4,0.5-1,0.9-1.6,1.2c-0.6,0.3-1.2,0.4-1.8,0.4c-0.5,0-1-0.1-1.5-0.2
	c-0.4-0.1-0.8-0.3-1.2-0.6c-0.3-0.3-0.6-0.6-0.8-1c-0.2-0.4-0.3-0.9-0.3-1.4c0-0.5,0.1-1.1,0.4-1.6c0.3-0.5,0.6-0.8,1.1-1.1
	c0.5-0.3,1.1-0.5,1.7-0.7c0.7-0.2,1.5-0.2,2.2-0.2h1.5V118c0-0.4,0-0.7-0.1-1.1c-0.1-0.3-0.2-0.6-0.4-0.8c-0.2-0.2-0.5-0.4-0.8-0.5
	c-0.4-0.1-0.8-0.2-1.1-0.2c-0.4,0-0.9,0.1-1.3,0.2c-0.3,0.1-0.7,0.2-1,0.4c-0.3,0.1-0.5,0.3-0.7,0.4c-0.1,0.1-0.3,0.1-0.4,0.2
	c-0.1,0-0.1,0-0.2,0c-0.1,0-0.1-0.1-0.1-0.1c0-0.1-0.1-0.2-0.1-0.2c0-0.1,0-0.2,0-0.3c0-0.2,0-0.3,0-0.5c0-0.1,0.1-0.2,0.2-0.3
	c0.2-0.1,0.4-0.3,0.6-0.4c0.3-0.2,0.6-0.3,0.9-0.4c0.4-0.1,0.7-0.2,1.1-0.3c0.4-0.1,0.8-0.1,1.2-0.1c0.7,0,1.4,0.1,2,0.3
	c0.5,0.1,0.9,0.4,1.3,0.8c0.3,0.4,0.6,0.8,0.7,1.3c0.2,0.6,0.2,1.2,0.2,1.8L389.6,125.1z M387.6,120.2H386c-0.5,0-0.9,0-1.4,0.1
	c-0.4,0.1-0.7,0.2-1,0.4c-0.2,0.2-0.4,0.4-0.6,0.6c-0.1,0.3-0.2,0.6-0.2,0.9c0,0.5,0.2,1,0.5,1.3c0.4,0.4,0.9,0.5,1.5,0.5
	c0.5,0,1-0.1,1.4-0.4c0.5-0.3,1-0.7,1.4-1.2V120.2z"/>
<path class="st1" d="M405.9,123.5c0,0.1,0,0.2,0,0.4c0,0.1,0,0.2,0,0.2c0,0.1,0,0.1-0.1,0.2c-0.1,0.1-0.1,0.2-0.2,0.2
	c-0.2,0.1-0.3,0.3-0.5,0.4c-0.3,0.2-0.5,0.3-0.8,0.4c-0.3,0.1-0.7,0.2-1,0.3c-0.4,0.1-0.7,0.1-1.1,0.1c-0.7,0-1.4-0.1-2.1-0.4
	c-0.6-0.2-1.1-0.6-1.5-1.1c-0.4-0.5-0.7-1.1-0.9-1.8c-0.2-0.8-0.3-1.6-0.3-2.5c0-0.9,0.1-1.8,0.4-2.7c0.2-0.7,0.6-1.3,1.1-1.9
	c0.4-0.5,1-0.8,1.6-1.1c0.6-0.2,1.3-0.4,2-0.4c0.3,0,0.7,0,1,0.1c0.3,0.1,0.6,0.1,0.9,0.2c0.3,0.1,0.5,0.2,0.7,0.4
	c0.2,0.1,0.3,0.2,0.5,0.4c0.1,0.1,0.1,0.1,0.2,0.2c0,0.1,0.1,0.1,0.1,0.2c0,0.1,0,0.2,0,0.3c0,0.1,0,0.2,0,0.4c0,0.2,0,0.4-0.1,0.6
	c0,0.1-0.1,0.2-0.3,0.2c-0.2,0-0.3-0.1-0.4-0.2c-0.2-0.2-0.4-0.3-0.6-0.4c-0.3-0.2-0.6-0.3-0.9-0.4c-0.4-0.1-0.8-0.2-1.2-0.2
	c-0.9,0-1.7,0.4-2.2,1.1c-0.6,1-0.8,2.1-0.8,3.2c0,0.6,0.1,1.2,0.2,1.8c0.1,0.5,0.3,0.9,0.6,1.3c0.2,0.3,0.6,0.6,0.9,0.8
	c0.4,0.2,0.8,0.3,1.3,0.3c0.4,0,0.8-0.1,1.2-0.2c0.3-0.1,0.6-0.3,0.9-0.5c0.3-0.2,0.5-0.3,0.6-0.5c0.1-0.1,0.2-0.2,0.4-0.2
	c0,0,0.1,0,0.1,0c0,0,0.1,0.1,0.1,0.2c0,0.1,0.1,0.2,0.1,0.3C405.8,123.2,405.9,123.3,405.9,123.5z"/>
<path class="st1" d="M421.1,123.5c0,0.1,0,0.2,0,0.4c0,0.1,0,0.2,0,0.2c0,0.1,0,0.1-0.1,0.2c-0.1,0.1-0.1,0.2-0.2,0.2
	c-0.2,0.1-0.3,0.3-0.5,0.4c-0.3,0.2-0.5,0.3-0.8,0.4c-0.3,0.1-0.7,0.2-1,0.3c-0.4,0.1-0.7,0.1-1.1,0.1c-0.7,0-1.4-0.1-2.1-0.4
	c-0.6-0.2-1.1-0.6-1.5-1.1c-0.4-0.5-0.7-1.1-0.9-1.8c-0.2-0.8-0.3-1.6-0.3-2.5c0-0.9,0.1-1.8,0.4-2.7c0.2-0.7,0.6-1.3,1.1-1.9
	c0.4-0.5,1-0.8,1.6-1.1c0.6-0.2,1.3-0.4,2-0.4c0.3,0,0.7,0,1,0.1c0.3,0.1,0.6,0.1,0.9,0.2c0.3,0.1,0.5,0.2,0.7,0.4
	c0.2,0.1,0.3,0.2,0.5,0.4c0.1,0.1,0.1,0.1,0.2,0.2c0,0.1,0.1,0.1,0.1,0.2c0,0.1,0,0.2,0,0.3c0,0.1,0,0.2,0,0.4c0,0.2,0,0.4-0.1,0.6
	c0,0.1-0.1,0.2-0.3,0.2c-0.2,0-0.3-0.1-0.4-0.2c-0.2-0.2-0.4-0.3-0.6-0.4c-0.3-0.2-0.6-0.3-0.9-0.4c-0.4-0.1-0.8-0.2-1.2-0.2
	c-0.9,0-1.7,0.4-2.2,1.1c-0.6,1-0.8,2.1-0.8,3.2c0,0.6,0.1,1.2,0.2,1.8c0.1,0.5,0.3,0.9,0.6,1.3c0.2,0.3,0.6,0.6,0.9,0.8
	c0.4,0.2,0.8,0.3,1.3,0.3c0.4,0,0.8-0.1,1.2-0.2c0.3-0.1,0.6-0.3,0.9-0.5c0.3-0.2,0.5-0.3,0.6-0.5c0.1-0.1,0.2-0.2,0.4-0.2
	c0,0,0.1,0,0.1,0c0,0,0.1,0.1,0.1,0.2c0,0.1,0.1,0.2,0.1,0.3C421.1,123.2,421.1,123.3,421.1,123.5z"/>
<path class="st1" d="M437.7,119.3c0,0.2-0.1,0.5-0.2,0.7c-0.1,0.1-0.3,0.2-0.5,0.2h-7.1c0,0.5,0.1,1.1,0.2,1.6
	c0.1,0.4,0.3,0.9,0.6,1.2c0.3,0.4,0.7,0.6,1.1,0.8c0.5,0.2,1.1,0.3,1.6,0.3c0.5,0,0.9,0,1.4-0.1c0.3-0.1,0.7-0.2,1-0.3
	c0.3-0.1,0.5-0.2,0.7-0.3c0.1-0.1,0.3-0.1,0.4-0.1c0,0,0.1,0,0.1,0c0,0,0.1,0.1,0.1,0.1c0,0.1,0,0.2,0.1,0.2c0,0.1,0,0.2,0,0.4
	c0,0.1,0,0.2,0,0.3c0,0.1,0,0.1,0,0.2c0,0.1,0,0.1-0.1,0.2c0,0.1-0.1,0.1-0.1,0.1c-0.1,0.1-0.3,0.2-0.4,0.2
	c-0.3,0.1-0.5,0.2-0.8,0.3c-0.4,0.1-0.8,0.2-1.2,0.3c-0.5,0.1-1,0.1-1.4,0.1c-0.8,0-1.6-0.1-2.3-0.4c-0.6-0.2-1.2-0.6-1.7-1.1
	c-0.5-0.5-0.8-1.2-1-1.8c-0.2-0.8-0.4-1.7-0.4-2.6c0-0.8,0.1-1.7,0.4-2.5c0.2-0.7,0.5-1.3,1-1.9c0.4-0.5,1-0.9,1.6-1.2
	c0.7-0.3,1.4-0.4,2.1-0.4c0.7,0,1.5,0.1,2.1,0.4c0.6,0.2,1.1,0.6,1.5,1.1c0.4,0.5,0.7,1,0.8,1.6c0.2,0.7,0.3,1.3,0.3,2L437.7,119.3z
	 M435.7,118.7c0.1-0.9-0.2-1.7-0.7-2.4c-0.5-0.6-1.3-0.9-2.1-0.9c-0.4,0-0.9,0.1-1.3,0.3c-0.4,0.2-0.7,0.4-0.9,0.7
	c-0.3,0.3-0.5,0.7-0.6,1.1c-0.1,0.4-0.2,0.8-0.2,1.3L435.7,118.7z"/>
<path class="st1" d="M452.3,122.2c0,0.5-0.1,1-0.3,1.5c-0.2,0.4-0.5,0.8-0.9,1.1c-0.4,0.3-0.8,0.5-1.3,0.7c-0.6,0.2-1.1,0.2-1.7,0.2
	c-0.7,0-1.4-0.1-2-0.3c-0.2-0.1-0.5-0.2-0.7-0.3c-0.2-0.1-0.3-0.2-0.4-0.3c-0.1-0.1-0.2-0.2-0.2-0.3c0-0.2-0.1-0.4-0.1-0.6
	c0-0.1,0-0.3,0-0.4c0-0.1,0-0.2,0.1-0.2c0-0.1,0.1-0.1,0.1-0.1c0,0,0.1,0,0.1,0c0.1,0,0.3,0.1,0.4,0.2c0.2,0.1,0.4,0.2,0.6,0.4
	c0.3,0.1,0.6,0.3,0.9,0.4c0.4,0.1,0.8,0.2,1.2,0.2c0.3,0,0.6,0,0.9-0.1c0.3-0.1,0.5-0.2,0.7-0.3c0.2-0.1,0.4-0.3,0.5-0.5
	c0.1-0.2,0.2-0.5,0.2-0.8c0-0.3-0.1-0.5-0.2-0.8c-0.2-0.2-0.4-0.4-0.6-0.6c-0.3-0.2-0.6-0.3-0.9-0.4l-1-0.4c-0.3-0.1-0.7-0.3-1-0.5
	c-0.3-0.2-0.6-0.4-0.9-0.6c-0.3-0.3-0.5-0.6-0.6-0.9c-0.2-0.4-0.2-0.8-0.2-1.2c0-0.4,0.1-0.8,0.2-1.2c0.2-0.4,0.4-0.7,0.7-1
	c0.4-0.3,0.8-0.5,1.2-0.7c0.6-0.2,1.1-0.3,1.7-0.3c0.3,0,0.6,0,0.9,0.1c0.3,0,0.5,0.1,0.8,0.2c0.2,0.1,0.4,0.1,0.6,0.2
	c0.1,0.1,0.3,0.1,0.4,0.2c0.1,0,0.1,0.1,0.2,0.2c0,0,0,0.1,0.1,0.2c0,0.1,0,0.1,0,0.2c0,0.1,0,0.2,0,0.3c0,0.1,0,0.2,0,0.4
	c0,0.1,0,0.2-0.1,0.2c0,0.1-0.1,0.1-0.1,0.1c0,0-0.1,0-0.1,0c-0.1,0-0.2-0.1-0.3-0.1c-0.2-0.1-0.3-0.2-0.5-0.3
	c-0.2-0.1-0.5-0.2-0.8-0.3c-0.3-0.1-0.7-0.1-1-0.1c-0.3,0-0.6,0-0.9,0.1c-0.2,0.1-0.4,0.2-0.6,0.3c-0.2,0.1-0.3,0.3-0.4,0.5
	c-0.1,0.2-0.1,0.4-0.1,0.6c0,0.3,0.1,0.6,0.2,0.8c0.2,0.2,0.4,0.4,0.6,0.6c0.3,0.2,0.6,0.3,0.9,0.4l1,0.4c0.3,0.1,0.7,0.3,1,0.4
	c0.3,0.2,0.6,0.4,0.9,0.6c0.3,0.2,0.5,0.5,0.6,0.9C452.2,121.4,452.3,121.8,452.3,122.2z"/>
<path class="st1" d="M466.8,122.2c0,0.5-0.1,1-0.3,1.5c-0.2,0.4-0.5,0.8-0.9,1.1c-0.4,0.3-0.8,0.5-1.3,0.7c-0.6,0.2-1.1,0.2-1.7,0.2
	c-0.7,0-1.4-0.1-2-0.3c-0.2-0.1-0.5-0.2-0.7-0.3c-0.2-0.1-0.3-0.2-0.4-0.3c-0.1-0.1-0.2-0.2-0.2-0.3c0-0.2-0.1-0.4-0.1-0.6
	c0-0.1,0-0.3,0-0.4c0-0.1,0-0.2,0.1-0.2c0-0.1,0.1-0.1,0.1-0.1c0,0,0.1,0,0.1,0c0.1,0,0.3,0.1,0.4,0.2c0.2,0.1,0.4,0.2,0.6,0.4
	c0.3,0.1,0.6,0.3,0.9,0.4c0.4,0.1,0.8,0.2,1.2,0.2c0.3,0,0.6,0,0.9-0.1c0.3-0.1,0.5-0.2,0.7-0.3c0.2-0.1,0.4-0.3,0.5-0.5
	c0.1-0.2,0.2-0.5,0.2-0.8c0-0.3-0.1-0.5-0.2-0.8c-0.2-0.2-0.4-0.4-0.6-0.6c-0.3-0.2-0.6-0.3-0.9-0.4l-1-0.4c-0.3-0.1-0.7-0.3-1-0.5
	c-0.3-0.2-0.6-0.4-0.9-0.6c-0.3-0.3-0.5-0.6-0.6-0.9c-0.2-0.4-0.2-0.8-0.2-1.2c0-0.4,0.1-0.8,0.2-1.2c0.2-0.4,0.4-0.7,0.7-1
	c0.4-0.3,0.8-0.5,1.2-0.7c0.6-0.2,1.1-0.3,1.7-0.3c0.3,0,0.6,0,0.9,0.1c0.3,0,0.5,0.1,0.8,0.2c0.2,0.1,0.4,0.1,0.6,0.2
	c0.1,0.1,0.3,0.1,0.4,0.2c0.1,0,0.1,0.1,0.2,0.2c0,0,0,0.1,0.1,0.2c0,0.1,0,0.1,0,0.2c0,0.1,0,0.2,0,0.3c0,0.1,0,0.2,0,0.4
	c0,0.1,0,0.2-0.1,0.2c0,0.1-0.1,0.1-0.1,0.1c0,0-0.1,0-0.1,0c-0.1,0-0.2-0.1-0.3-0.1c-0.2-0.1-0.3-0.2-0.5-0.3
	c-0.2-0.1-0.5-0.2-0.8-0.3c-0.3-0.1-0.7-0.1-1-0.1c-0.3,0-0.6,0-0.9,0.1c-0.2,0.1-0.4,0.2-0.6,0.3c-0.2,0.1-0.3,0.3-0.4,0.5
	c-0.1,0.2-0.1,0.4-0.1,0.6c0,0.3,0.1,0.6,0.2,0.8c0.2,0.2,0.4,0.4,0.6,0.6c0.3,0.2,0.6,0.3,0.9,0.4l1,0.4c0.3,0.1,0.7,0.3,1,0.4
	c0.3,0.2,0.6,0.4,0.9,0.6c0.3,0.2,0.5,0.5,0.6,0.9C466.6,121.4,466.7,121.8,466.8,122.2z"/>
<path class="st1" d="M484.4,119.6c0,0.8-0.1,1.6-0.4,2.4c-0.2,0.7-0.5,1.3-1,1.9c-0.5,0.5-1.1,1-1.7,1.2c-0.8,0.3-1.6,0.5-2.4,0.4
	c-0.8,0-1.6-0.1-2.3-0.4c-0.6-0.2-1.2-0.6-1.6-1.1c-0.5-0.5-0.8-1.1-1-1.8c-0.2-0.8-0.3-1.6-0.3-2.4c0-0.8,0.1-1.6,0.3-2.4
	c0.2-0.7,0.5-1.3,1-1.9c0.5-0.5,1.1-1,1.7-1.2c0.8-0.3,1.6-0.5,2.4-0.4c0.8,0,1.6,0.1,2.3,0.4c0.6,0.2,1.2,0.6,1.6,1.1
	c0.5,0.5,0.8,1.2,1,1.8C484.3,118,484.4,118.8,484.4,119.6z M482.4,119.8c0-0.6-0.1-1.1-0.2-1.6c-0.1-0.5-0.3-0.9-0.5-1.4
	c-0.2-0.4-0.6-0.7-1-0.9c-0.5-0.2-1-0.4-1.6-0.3c-0.5,0-1,0.1-1.5,0.3c-0.4,0.2-0.7,0.5-1,0.9c-0.3,0.4-0.5,0.9-0.6,1.3
	c-0.1,0.6-0.2,1.1-0.2,1.7c0,0.6,0,1.1,0.2,1.7c0.1,0.5,0.3,0.9,0.5,1.4c0.3,0.4,0.6,0.7,1,0.9c0.5,0.2,1,0.4,1.6,0.3
	c0.5,0,1-0.1,1.5-0.3c0.4-0.2,0.7-0.5,1-0.9c0.3-0.4,0.5-0.9,0.6-1.3C482.3,120.9,482.4,120.3,482.4,119.8L482.4,119.8z"/>
<path class="st1" d="M498.4,115.1c0,0.2,0,0.3,0,0.4c0,0.1,0,0.2,0,0.3c0,0.1,0,0.1-0.1,0.2c0,0-0.1,0.1-0.1,0.1
	c-0.1,0-0.2,0-0.2-0.1l-0.3-0.1l-0.4-0.1c-0.2,0-0.3,0-0.5,0c-0.2,0-0.4,0-0.6,0.1c-0.2,0.1-0.4,0.2-0.6,0.4
	c-0.2,0.2-0.5,0.5-0.7,0.7c-0.2,0.3-0.5,0.7-0.8,1.1v7c0,0.1,0,0.1,0,0.2c0,0.1-0.1,0.1-0.2,0.1c-0.1,0-0.2,0.1-0.3,0.1h-0.5h-0.5
	c-0.1,0-0.2,0-0.3-0.1c-0.1,0-0.1-0.1-0.2-0.1c0-0.1,0-0.1,0-0.2v-10.7c0-0.1,0-0.1,0-0.2c0-0.1,0.1-0.1,0.1-0.1
	c0.1,0,0.2-0.1,0.3-0.1h0.4h0.4c0.1,0,0.2,0,0.3,0.1c0.1,0,0.1,0.1,0.1,0.1c0,0.1,0,0.1,0,0.2v1.6c0.3-0.4,0.5-0.7,0.8-1
	c0.2-0.2,0.5-0.5,0.7-0.6c0.2-0.1,0.4-0.3,0.7-0.3c0.2-0.1,0.5-0.1,0.7-0.1h0.4l0.4,0.1l0.4,0.1c0.1,0,0.2,0.1,0.2,0.1
	c0,0,0.1,0.1,0.1,0.1c0,0,0,0.1,0,0.1c0,0.1,0,0.2,0,0.2C498.4,114.8,498.4,114.9,498.4,115.1z"/>
<path class="st1" d="M507.8,110.8c0,0.3-0.1,0.7-0.3,0.9c-0.3,0.2-0.6,0.3-1,0.2c-0.3,0-0.7-0.1-0.9-0.2c-0.2-0.3-0.3-0.6-0.3-0.9
	c0-0.3,0.1-0.7,0.3-0.9c0.3-0.2,0.6-0.3,1-0.2c0.3,0,0.7,0.1,0.9,0.2C507.7,110.1,507.8,110.4,507.8,110.8z M507.5,125.1
	c0,0.1,0,0.1,0,0.2c0,0.1-0.1,0.1-0.2,0.1c-0.1,0-0.2,0.1-0.3,0.1h-0.5h-0.5c-0.1,0-0.2,0-0.3-0.1c-0.1,0-0.1-0.1-0.2-0.1
	c0-0.1,0-0.1,0-0.2v-10.7c0,0,0-0.1,0-0.1c0-0.1,0.1-0.1,0.2-0.1c0.1,0,0.2-0.1,0.3-0.1h0.5h0.5c0.1,0,0.2,0,0.3,0.1
	c0.1,0,0.1,0.1,0.2,0.1c0,0,0,0.1,0,0.1V125.1z"/>
<path class="st1" d="M525.2,119.3c0,0.2-0.1,0.5-0.2,0.7c-0.1,0.1-0.3,0.2-0.5,0.2h-7.1c0,0.5,0.1,1.1,0.2,1.6
	c0.1,0.4,0.3,0.9,0.6,1.2c0.3,0.4,0.7,0.6,1.1,0.8c0.5,0.2,1.1,0.3,1.6,0.3c0.5,0,0.9,0,1.4-0.1c0.3-0.1,0.7-0.2,1-0.3
	c0.3-0.1,0.5-0.2,0.7-0.3c0.1-0.1,0.3-0.1,0.4-0.1c0,0,0.1,0,0.1,0c0,0,0.1,0.1,0.1,0.1c0,0.1,0,0.2,0.1,0.2c0,0.1,0,0.2,0,0.4
	c0,0.1,0,0.2,0,0.3c0,0.1,0,0.1,0,0.2c0,0.1,0,0.1-0.1,0.2c0,0.1-0.1,0.1-0.1,0.1c-0.1,0.1-0.3,0.2-0.4,0.2
	c-0.3,0.1-0.5,0.2-0.8,0.3c-0.4,0.1-0.8,0.2-1.2,0.3c-0.5,0.1-1,0.1-1.4,0.1c-0.8,0-1.6-0.1-2.3-0.4c-0.6-0.2-1.2-0.6-1.7-1.1
	c-0.5-0.5-0.8-1.2-1-1.8c-0.2-0.8-0.4-1.7-0.4-2.6c0-0.8,0.1-1.7,0.4-2.5c0.2-0.7,0.5-1.3,1-1.9c0.4-0.5,1-0.9,1.6-1.2
	c0.7-0.3,1.4-0.4,2.1-0.4c0.7,0,1.5,0.1,2.1,0.4c0.6,0.2,1.1,0.6,1.5,1.1c0.4,0.5,0.7,1,0.8,1.6c0.2,0.7,0.3,1.3,0.3,2L525.2,119.3z
	 M523.2,118.7c0.1-0.9-0.2-1.7-0.7-2.4c-0.5-0.6-1.3-0.9-2.1-0.9c-0.4,0-0.9,0.1-1.3,0.3c-0.4,0.2-0.7,0.4-0.9,0.7
	c-0.3,0.3-0.5,0.7-0.6,1.1c-0.1,0.4-0.2,0.8-0.2,1.3L523.2,118.7z"/>
<path class="st1" d="M539.8,122.2c0,0.5-0.1,1-0.3,1.5c-0.2,0.4-0.5,0.8-0.9,1.1c-0.4,0.3-0.8,0.5-1.3,0.7c-0.6,0.2-1.1,0.2-1.7,0.2
	c-0.7,0-1.4-0.1-2-0.3c-0.2-0.1-0.5-0.2-0.7-0.3c-0.2-0.1-0.3-0.2-0.4-0.3c-0.1-0.1-0.2-0.2-0.2-0.3c0-0.2-0.1-0.4-0.1-0.6
	c0-0.1,0-0.3,0-0.4c0-0.1,0-0.2,0.1-0.2c0-0.1,0.1-0.1,0.1-0.1c0,0,0.1,0,0.1,0c0.1,0,0.3,0.1,0.4,0.2c0.2,0.1,0.4,0.2,0.6,0.4
	c0.3,0.1,0.6,0.3,0.9,0.4c0.4,0.1,0.8,0.2,1.2,0.2c0.3,0,0.6,0,0.9-0.1c0.3-0.1,0.5-0.2,0.7-0.3c0.2-0.1,0.4-0.3,0.5-0.5
	c0.1-0.2,0.2-0.5,0.2-0.8c0-0.3-0.1-0.5-0.2-0.8c-0.2-0.2-0.4-0.4-0.6-0.6c-0.3-0.2-0.6-0.3-0.9-0.4l-1-0.4c-0.3-0.1-0.7-0.3-1-0.5
	c-0.3-0.2-0.6-0.4-0.9-0.6c-0.3-0.3-0.5-0.6-0.6-0.9c-0.2-0.4-0.2-0.8-0.2-1.2c0-0.4,0.1-0.8,0.2-1.2c0.2-0.4,0.4-0.7,0.7-1
	c0.4-0.3,0.8-0.5,1.2-0.7c0.6-0.2,1.1-0.3,1.7-0.3c0.3,0,0.6,0,0.9,0.1c0.3,0,0.5,0.1,0.8,0.2c0.2,0.1,0.4,0.1,0.6,0.2
	c0.1,0.1,0.3,0.1,0.4,0.2c0.1,0,0.1,0.1,0.2,0.2c0,0,0,0.1,0.1,0.2c0,0.1,0,0.1,0,0.2c0,0.1,0,0.2,0,0.3c0,0.1,0,0.2,0,0.4
	c0,0.1,0,0.2-0.1,0.2c0,0.1-0.1,0.1-0.1,0.1c0,0-0.1,0-0.1,0c-0.1,0-0.2-0.1-0.3-0.1c-0.2-0.1-0.3-0.2-0.5-0.3
	c-0.2-0.1-0.5-0.2-0.8-0.3c-0.3-0.1-0.7-0.1-1-0.1c-0.3,0-0.6,0-0.9,0.1c-0.2,0.1-0.4,0.2-0.6,0.3c-0.2,0.1-0.3,0.3-0.4,0.5
	c-0.1,0.2-0.1,0.4-0.1,0.6c0,0.3,0.1,0.6,0.2,0.8c0.2,0.2,0.4,0.4,0.6,0.6c0.3,0.2,0.6,0.3,0.9,0.4l1,0.4c0.3,0.1,0.7,0.3,1,0.4
	c0.3,0.2,0.6,0.4,0.9,0.6c0.3,0.2,0.5,0.5,0.6,0.9C539.7,121.4,539.8,121.8,539.8,122.2z"/>
</svg>
