<svg width="18" height="18" viewBox="0 0 18 18" fill="none" xmlns="http://www.w3.org/2000/svg">
<path d="M16.3611 0.00799683H1.63806C0.737057 0.00799683 0.00805664 0.736997 0.00805664 1.638V16.362C0.00805664 17.262 0.737057 17.993 1.63806 17.993H16.3621C17.2621 17.993 17.9931 17.263 17.9931 16.362V1.638C17.9931 1.42377 17.9508 1.21165 17.8688 1.01376C17.7867 0.81587 17.6665 0.636091 17.5149 0.484705C17.3634 0.33332 17.1834 0.213296 16.9854 0.131499C16.7875 0.0497014 16.5753 0.00773398 16.3611 0.00799683ZM6.01806 3.505C6.61506 3.505 7.11606 3.977 7.11606 4.583C7.11606 5.199 6.61506 5.663 6.01806 5.663V5.685C5.41406 5.685 4.92806 5.199 4.92806 4.597C4.92806 3.992 5.41406 3.505 6.01806 3.505ZM13.3721 13.857C12.2601 13.857 11.7211 13.195 11.7211 12.291C11.7211 12.031 11.7541 11.758 11.8351 11.479L12.3631 9.573C12.4311 9.365 12.4491 9.168 12.4491 8.992C12.4491 8.377 12.0741 8.008 11.4781 8.008C10.7171 8.008 10.2181 8.551 9.95806 9.606L8.92506 13.752H7.11406L7.44106 12.449C6.90706 13.322 6.17006 13.861 5.25806 13.861C4.15606 13.861 3.64106 13.229 3.64106 12.277C3.64544 12.0041 3.67761 11.7324 3.73706 11.466L4.56306 8.1H3.28506L3.67306 6.67H6.74806L5.53206 11.474C5.45206 11.783 5.42206 12.033 5.42206 12.212C5.42206 12.519 5.57006 12.608 5.80706 12.664C5.95306 12.694 7.10206 12.675 7.72506 11.288L8.52306 8.1H7.22906L7.62006 6.696H10.4071L10.0481 8.313C10.5321 7.414 11.5001 6.551 12.4541 6.551C13.4661 6.551 14.3091 7.279 14.3091 8.662C14.3091 9.062 14.2461 9.458 14.1291 9.842L13.6091 11.7C13.5662 11.8608 13.5411 12.0258 13.5341 12.192C13.5341 12.518 13.6701 12.676 13.9021 12.676C14.1401 12.676 14.4551 12.495 14.8011 11.504L15.5091 11.776C15.0951 13.249 14.3271 13.857 13.3721 13.857Z" fill="black"/>
</svg>
