<svg width="20" height="16" viewBox="0 0 20 16" fill="none" xmlns="http://www.w3.org/2000/svg">
<path d="M17.633 3.99698C17.646 4.17198 17.646 4.34598 17.646 4.51998C17.646 9.84498 13.593 15.981 6.186 15.981C3.904 15.981 1.784 15.32 0 14.172C0.324 14.209 0.636 14.222 0.973 14.222C2.78599 14.2264 4.54765 13.6201 5.974 12.501C5.13342 12.4858 4.31858 12.2084 3.64324 11.7077C2.9679 11.207 2.46578 10.5079 2.207 9.70798C2.456 9.74498 2.706 9.76998 2.968 9.76998C3.329 9.76998 3.692 9.71998 4.029 9.63298C3.11676 9.4488 2.29647 8.95433 1.70762 8.23367C1.11876 7.513 0.797693 6.61063 0.799 5.67998V5.62998C1.336 5.92898 1.959 6.11598 2.619 6.14098C2.06609 5.77357 1.61272 5.27501 1.29934 4.68977C0.98596 4.10454 0.822313 3.45084 0.823 2.78698C0.823 2.03898 1.022 1.35298 1.371 0.754982C2.38314 2 3.6455 3.01854 5.07634 3.74464C6.50717 4.47074 8.07456 4.8882 9.677 4.96998C9.615 4.66998 9.577 4.35898 9.577 4.04698C9.57674 3.51794 9.68075 2.99404 9.88308 2.50522C10.0854 2.0164 10.3821 1.57226 10.7562 1.19817C11.1303 0.824083 11.5744 0.527393 12.0632 0.32506C12.5521 0.122728 13.076 0.0187196 13.605 0.0189824C14.765 0.0189824 15.812 0.504982 16.548 1.29098C17.4498 1.1166 18.3145 0.787404 19.104 0.317982C18.8034 1.2488 18.1738 2.03809 17.333 2.53798C18.1328 2.44676 18.9144 2.23643 19.652 1.91398C19.1011 2.71708 18.4185 3.42133 17.633 3.99698Z" fill="black"/>
</svg>
