<svg width="16" height="18" viewBox="0 0 16 18" fill="none" xmlns="http://www.w3.org/2000/svg">
<path d="M14.344 5.71001C13.637 5.71001 13.065 6.28201 13.065 6.98801V11.518C13.065 11.8572 13.1997 12.1825 13.4396 12.4224C13.6794 12.6623 14.0047 12.797 14.344 12.797C14.6832 12.797 15.0085 12.6623 15.2483 12.4224C15.4882 12.1825 15.623 11.8572 15.623 11.518V6.98801C15.623 6.28201 15.051 5.71001 14.344 5.71001ZM1.65595 5.71001C0.948953 5.71001 0.376953 6.28201 0.376953 6.98801V11.518C0.376953 11.8572 0.511705 12.1825 0.751564 12.4224C0.991423 12.6623 1.31674 12.797 1.65595 12.797C1.99517 12.797 2.32048 12.6623 2.56034 12.4224C2.8002 12.1825 2.93495 11.8572 2.93495 11.518V6.98801C2.93508 6.82006 2.90209 6.65373 2.83784 6.49855C2.7736 6.34338 2.67938 6.20239 2.56058 6.08368C2.44177 5.96497 2.30071 5.87086 2.14549 5.80674C1.99026 5.74262 1.8239 5.70975 1.65595 5.71001ZM10.545 1.90101L11.313 0.513011C11.3354 0.473495 11.3498 0.429912 11.3552 0.384794C11.3607 0.339676 11.3571 0.293922 11.3448 0.250193C11.3324 0.206463 11.3114 0.165628 11.2831 0.130061C11.2549 0.0944941 11.2198 0.0649042 11.18 0.0430106C11.1402 0.0206184 11.0965 0.00634321 11.0512 0.00101485C11.0059 -0.00431351 10.96 -0.000588792 10.9162 0.0119726C10.8724 0.0245339 10.8315 0.0456814 10.7959 0.0741855C10.7603 0.10269 10.7308 0.137982 10.709 0.178011L9.91995 1.59801C9.33195 1.36301 8.68395 1.23001 7.99995 1.23001C7.31595 1.23001 6.66795 1.36201 6.07995 1.59701L5.29095 0.179011C5.26913 0.138982 5.23957 0.10369 5.20399 0.0751854C5.16841 0.0466813 5.12752 0.0255341 5.0837 0.0129727C5.03987 0.000411374 4.99399 -0.00331334 4.94871 0.00201502C4.90343 0.00734337 4.85966 0.0216183 4.81995 0.0440105C4.78032 0.0661005 4.74544 0.0957908 4.7173 0.131381C4.68916 0.166972 4.66831 0.207764 4.65596 0.251421C4.6436 0.295079 4.63998 0.340744 4.6453 0.385803C4.65062 0.430862 4.66477 0.474429 4.68695 0.514011L5.45495 1.90201C4.07195 2.69001 3.14795 4.09901 3.14795 5.71001C3.14795 5.72101 3.14795 5.73101 3.14995 5.74401C3.14795 5.75001 3.14795 5.75701 3.14795 5.76301V5.76401H12.851V5.71001C12.852 4.09901 11.928 2.69101 10.545 1.90101ZM5.75995 3.86901C5.71445 3.86868 5.66946 3.8594 5.62754 3.84168C5.58563 3.82396 5.54762 3.79816 5.51567 3.76576C5.45116 3.70031 5.41529 3.61191 5.41595 3.52001C5.41662 3.42811 5.45376 3.34024 5.51921 3.27573C5.58466 3.21122 5.67306 3.17535 5.76495 3.17601C5.85685 3.17667 5.94472 3.21382 6.00923 3.27927C6.07375 3.34472 6.10962 3.43311 6.10895 3.52501C6.10829 3.61691 6.07115 3.70478 6.0057 3.76929C5.94025 3.8338 5.85185 3.86967 5.75995 3.86901ZM10.24 3.86901C10.1527 3.86237 10.0712 3.82304 10.0118 3.75889C9.95231 3.69473 9.91928 3.61048 9.91928 3.52301C9.91928 3.43554 9.95231 3.35129 10.0118 3.28714C10.0712 3.22298 10.1527 3.18365 10.24 3.17701C10.3317 3.17701 10.4197 3.21346 10.4846 3.27835C10.5495 3.34324 10.586 3.43125 10.586 3.52301C10.586 3.61478 10.5495 3.70278 10.4846 3.76767C10.4197 3.83256 10.3317 3.86901 10.24 3.86901ZM3.14795 13.12C3.14795 13.766 3.67295 14.291 4.32195 14.291H4.90795V16.692C4.90795 17.0312 5.04271 17.3565 5.28256 17.5964C5.52242 17.8363 5.84774 17.971 6.18695 17.971C6.52617 17.971 6.85148 17.8363 7.09134 17.5964C7.3312 17.3565 7.46595 17.0312 7.46595 16.692V14.291H8.53195V16.692C8.53195 17.399 9.10395 17.97 9.80895 17.97C10.518 17.97 11.09 17.399 11.09 16.692V14.291H11.676C12.324 14.291 12.85 13.767 12.85 13.12V6.02801H3.14795V13.12Z" fill="black"/>
</svg>
